# xmcd
#
# Track frame offsets:
# 150
# 18374
# 35289
# 54379
# 71596
# 89864
# 109492
# 124349
# 139246
# 148044
#
# Disc length: 2198 seconds
#
# Revision: 3
# Processed by: cddbd v1.5.2PL0 Copyright (c) Steve Scherf et al.
# Submitted via: TinyPlayer 2.8
#
DISCID=9808940a
DTITLE=Joe Walsh - Analog Man
DYEAR=2012
DGENRE=Rock
TTITLE0=Analog Man
TTITLE1=Wrecking Ball
TTITLE2=Lucky That Way
TTITLE3=Spanish Dancer
TTITLE4=Band Played On
TTITLE5=Family
TTITLE6=One Day at a Time
TTITLE7=Hi-Roller Baby
TTITLE8=Funk 50
TTITLE9=India
EXTD=Location:  - UPC: 888072337718 - Catalogue number: LDW8395 - Label: Fantasy - ASIN: B007O4XX9K - Release Date: 2012 06 05 - Discogs: a162617,m453825,r4503411 - MUSICBRAINZ_ALBUMID: 648bf861-01f3-45b9-816f-8ad60d7e6179 - AMG: MN0000808214,MW0002343771;
EXTT0=
EXTT1=
EXTT2=
EXTT3=
EXTT4=
EXTT5=
EXTT6=
EXTT7=
EXTT8=
EXTT9=
PLAYORDER=
